<?xml version="1.0" ?><svg viewBox="0 0 512 512" xmlns="http://www.w3.org/2000/svg"><g id="Cloud_global_access"><path d="M438.1546,130.5923a97.7285,97.7285,0,0,0-69.8408-29.0811h-.3565a28.8374,28.8374,0,0,1-26.0849-16.6123,108.2881,108.2881,0,0,0-196.42,0,28.8418,28.8418,0,0,1-26.1045,16.6123H119.01A98.4035,98.4035,0,0,0,20.61,200.66c.3237,43.635,29.7116,80.6748,69.8437,93.1572v25.9a24.0371,24.0371,0,0,0,0,46.2869v28.2439a23.4811,23.4811,0,0,0,23.4551,23.455H126.906a24.037,24.037,0,0,0,46.2869,0h39.9285a134.7319,134.7319,0,0,1-7.8875-12.873h42.6966a219.3653,219.3653,0,0,1-8.9371-57.2305H189.3855a133.9594,133.9594,0,0,0,15.791,57.127l-.0131-.0235h-31.97a24.0374,24.0374,0,0,0-46.2869,0H113.9085a10.4673,10.4673,0,0,1-10.4551-10.455V366.0037a24.0374,24.0374,0,0,0,0-46.2869v-22.8a100.4027,100.4027,0,0,0,16.7109,1.4014h41.31a6.5,6.5,0,0,0,0-13h-41.31c-47.38,0-86.208-38.02-86.5546-84.7539a85.4032,85.4032,0,0,1,85.4-86.0528h.3565a41.8779,41.8779,0,0,0,37.875-24.1318,95.2869,95.2869,0,0,1,172.8418,0,41.8663,41.8663,0,0,0,37.8555,24.1318h.375a85.2965,85.2965,0,0,1,81.333,111.3321,6.5,6.5,0,0,0,12.3672,4.0039,98.18,98.18,0,0,0-23.8594-99.2549ZM150.0491,400.16a11.0435,11.0435,0,1,1-11.043,11.0429A11.056,11.056,0,0,1,150.0491,400.16Zm-42.0527-57.3a11.0435,11.0435,0,1,1-11.043-11.043A11.056,11.056,0,0,1,107.9964,342.86Z"/><path d="M119.4241,132.3911a67.0246,67.0246,0,0,0-67.0215,67.5352,6.5,6.5,0,0,0,6.499,6.4521h.0489a6.5,6.5,0,0,0,6.4521-6.5478,54.0241,54.0241,0,0,1,54.0039-54.44l.3594.001h.0176a6.5,6.5,0,0,0,.0176-13Z"/><path d="M330.4515,264.3686h51.0444a136.9416,136.9416,0,0,0-7.6148-15.2607c-12.0249-20.6235-27.25-33.062-43.43-35.6995Z"/><path d="M251.9922,334.5991h65.4593V277.3686H261.5479A203.6552,203.6552,0,0,0,251.9922,334.5991Z"/><path d="M274.0227,249.1079a136.9585,136.9585,0,0,0-7.6147,15.2607h51.0435v-50.96C301.2725,216.0461,286.0476,228.4846,274.0227,249.1079Z"/><path d="M261.5481,404.83h55.9034V347.5991H251.9922A203.6443,203.6443,0,0,0,261.5481,404.83Z"/><path d="M399.9734,404.83h42.7a133.9557,133.9557,0,0,0,15.8448-57.2305H408.91A219.37,219.37,0,0,1,399.9734,404.83Z"/><path d="M399.9734,277.3686a219.3709,219.3709,0,0,1,8.937,57.2305h49.6077a133.9583,133.9583,0,0,0-15.8445-57.2305Z"/><path d="M385.1116,242.56a153.2308,153.2308,0,0,1,10.4119,21.8085h39.1711a134.8749,134.8749,0,0,0-78.2517-54.041C367.1321,217.5625,376.8706,228.4258,385.1116,242.56Z"/><path d="M274.0227,433.0894c12.0249,20.6232,27.25,33.0617,43.4288,35.6994V417.83H266.4082A136.9865,136.9865,0,0,0,274.0227,433.0894Z"/><path d="M189.3855,334.5991h49.6079a219.3667,219.3667,0,0,1,8.9371-57.2305H205.23A133.9568,133.9568,0,0,0,189.3855,334.5991Z"/><path d="M330.4515,468.7888c16.18-2.6374,31.4047-15.0759,43.43-35.6994a136.9692,136.9692,0,0,0,7.6145-15.26H330.4515Z"/><path d="M262.7923,439.6382A153.2212,153.2212,0,0,1,252.38,417.83H213.21a134.8749,134.8749,0,0,0,78.2512,54.04C280.7718,464.6353,271.0332,453.772,262.7923,439.6382Z"/><path d="M385.1116,439.6382c-8.241,14.1338-17.98,24.9971-28.6692,32.2319a134.8754,134.8754,0,0,0,78.2517-54.04H395.5235A153.232,153.232,0,0,1,385.1116,439.6382Z"/><path d="M262.7923,242.56c8.2409-14.1341,17.979-24.9976,28.6682-32.2325a134.8741,134.8741,0,0,0-78.2515,54.041H252.38A153.22,153.22,0,0,1,262.7923,242.56Z"/><path d="M330.4515,404.83h55.9042a203.6407,203.6407,0,0,0,9.556-57.2305h-65.46Z"/><path d="M330.4515,334.5991h65.46a203.6552,203.6552,0,0,0-9.5557-57.2305H330.4515Z"/></g></svg>